<?xml version="1.0" encoding="UTF-8"?>
<!DOCTYPE svg PUBLIC "-//W3C//DTD SVG 1.1//EN" "http://www.w3.org/Graphics/SVG/1.1/DTD/svg11.dtd">
<svg xmlns="http://www.w3.org/2000/svg" version="1.1" width="1267px" height="1267px" style="shape-rendering:geometricPrecision; text-rendering:geometricPrecision; image-rendering:optimizeQuality; fill-rule:evenodd; clip-rule:evenodd" xmlns:xlink="http://www.w3.org/1999/xlink">
<g><path style="opacity:1" fill="#70c7f2" d="M 300.5,-0.5 C 522.167,-0.5 743.833,-0.5 965.5,-0.5C 965.833,0.833333 966.167,0.833333 966.5,-0.5C 966.833,-0.5 967.167,-0.5 967.5,-0.5C 989.207,0.754769 1010.87,3.42144 1032.5,7.5C 1032.61,8.11742 1032.94,8.61742 1033.5,9C 1036.98,9.30117 1040.31,10.1345 1043.5,11.5C 1044.42,11.4573 1045.08,11.1239 1045.5,10.5C 1047.62,10.3253 1049.62,10.6586 1051.5,11.5C 1051.66,12.8734 1051.49,14.2068 1051,15.5C 1050.69,14.6919 1050.19,14.0253 1049.5,13.5C 1047.75,16.1305 1048.58,18.4638 1052,20.5C 1052.67,17.9722 1053.5,17.9722 1054.5,20.5C 1052.33,21.8932 1050.49,21.5598 1049,19.5C 1047.45,20.9137 1046.78,22.5804 1047,24.5C 1050.38,23.7314 1053.88,23.3981 1057.5,23.5C 1059.57,25.433 1061.91,25.433 1064.5,23.5C 1066.67,25.7808 1068.67,25.7808 1070.5,23.5C 1072.83,26.3345 1075.67,27.0012 1079,25.5C 1079.46,24.2559 1078.96,23.4226 1077.5,23C 1078.45,22.5172 1079.45,22.3505 1080.5,22.5C 1080.5,23.5 1080.5,24.5 1080.5,25.5C 1082.14,25.5198 1083.48,24.8532 1084.5,23.5C 1085.33,24.5 1086.17,25.5 1087,26.5C 1087.33,26.1667 1087.67,25.8333 1088,25.5C 1088.33,26.5 1088.67,27.5 1089,28.5C 1089.84,25.5363 1090.84,25.203 1092,27.5C 1092.72,26.9558 1093.22,26.2891 1093.5,25.5C 1103.59,29.1396 1113.26,33.6396 1122.5,39C 1135.02,47.0983 1147.02,55.9316 1158.5,65.5C 1159.17,68.1667 1160.83,69.8333 1163.5,70.5C 1165.5,72.1667 1167.5,73.8333 1169.5,75.5C 1170.76,78.4274 1172.76,80.7607 1175.5,82.5C 1180.87,86.8714 1185.54,91.8714 1189.5,97.5C 1189.5,99.5 1190.5,100.5 1192.5,100.5C 1192.43,102.027 1193.09,103.027 1194.5,103.5C 1195.5,103.833 1196.17,104.5 1196.5,105.5C 1196.43,107.027 1197.09,108.027 1198.5,108.5C 1199.17,108.5 1199.5,108.833 1199.5,109.5C 1199.74,111.404 1200.74,112.738 1202.5,113.5C 1203.17,113.5 1203.5,113.833 1203.5,114.5C 1203.43,116.027 1204.09,117.027 1205.5,117.5C 1206.17,117.5 1206.5,117.833 1206.5,118.5C 1206.43,120.027 1207.09,121.027 1208.5,121.5C 1216.02,131.72 1222.36,142.72 1227.5,154.5C 1227.66,156.153 1228.33,157.486 1229.5,158.5C 1235.78,171.402 1241.28,184.735 1246,198.5C 1256.6,237.627 1262.43,277.46 1263.5,318C 1263.66,349.879 1263.66,381.713 1263.5,413.5C 1262.07,413.881 1261.24,414.881 1261,416.5C 1259.26,414.459 1259.09,412.292 1260.5,410C 1260,409.5 1259.5,409 1259,408.5C 1258.33,412.833 1258.33,417.167 1259,421.5C 1260.13,420.396 1260.96,420.729 1261.5,422.5C 1260.5,425.028 1259.67,425.028 1259,422.5C 1258.33,426.833 1258.33,431.167 1259,435.5C 1261.8,436.717 1262.47,438.384 1261,440.5C 1259.39,439.378 1258.22,439.878 1257.5,442C 1257.86,446.892 1258.86,451.558 1260.5,456C 1258.67,459.839 1257.67,464.006 1257.5,468.5C 1258.43,479.067 1258.43,489.734 1257.5,500.5C 1258.03,509.825 1259.36,518.991 1261.5,528C 1260.17,530.333 1260.17,532.667 1261.5,535C 1261,535.5 1260.5,536 1260,536.5C 1259.67,532.167 1259.33,527.833 1259,523.5C 1258.73,525.101 1258.23,526.601 1257.5,528C 1257.85,539.478 1257.85,551.144 1257.5,563C 1258.23,564.399 1258.73,565.899 1259,567.5C 1259.85,565.875 1260.85,565.542 1262,566.5C 1262.72,568.112 1262.55,569.612 1261.5,571C 1262.07,571.995 1262.73,572.828 1263.5,573.5C 1263.83,598.254 1263.83,623.587 1263.5,649.5C 1262.5,649.5 1261.5,649.5 1260.5,649.5C 1260.38,651.734 1260.71,653.901 1261.5,656C 1260.99,657.826 1260.16,657.993 1259,656.5C 1258.13,657.108 1257.63,657.941 1257.5,659C 1258.28,670.108 1258.62,681.108 1258.5,692C 1258.43,694.95 1257.77,697.617 1256.5,700C 1257.74,701.87 1258.41,704.036 1258.5,706.5C 1258.37,719.166 1258.37,731.833 1258.5,744.5C 1259.68,744.281 1260.68,744.614 1261.5,745.5C 1261.38,749.377 1261.38,753.544 1261.5,758C 1261.46,759.967 1260.96,761.801 1260,763.5C 1259.67,758.833 1259.33,754.167 1259,749.5C 1258.5,750 1258,750.5 1257.5,751C 1258.07,756.82 1258.4,762.653 1258.5,768.5C 1258.18,769.647 1257.52,770.481 1256.5,771C 1258.2,774.168 1259.04,777.668 1259,781.5C 1259.17,777.789 1259.67,774.122 1260.5,770.5C 1261.12,774.094 1261.46,777.594 1261.5,781C 1261.32,783.241 1260.49,783.741 1259,782.5C 1258.33,784.167 1258.33,785.833 1259,787.5C 1259.96,783.871 1260.79,784.204 1261.5,788.5C 1261.28,789.938 1260.78,791.271 1260,792.5C 1259.67,792.167 1259.33,791.833 1259,791.5C 1258.73,794.224 1258.23,796.891 1257.5,799.5C 1257.67,811 1257.67,822.167 1257.5,833C 1257.83,833.5 1258.17,834 1258.5,834.5C 1259.17,831.5 1259.83,828.5 1260.5,825.5C 1262.36,830 1262.36,834.666 1260.5,839.5C 1261.07,841.059 1261.74,842.559 1262.5,844C 1261.17,850.667 1261.17,857.333 1262.5,864C 1261.69,870.085 1261.19,876.252 1261,882.5C 1260.17,881.667 1259.33,880.833 1258.5,880C 1259.77,877.861 1259.77,875.695 1258.5,873.5C 1258.17,874.833 1257.83,876.167 1257.5,877.5C 1258.12,879.986 1258.12,882.319 1257.5,884.5C 1257.83,885.167 1258.17,885.833 1258.5,886.5C 1259.81,882.612 1260.81,882.778 1261.5,887C 1261.47,892.684 1261.31,898.517 1261,904.5C 1260.67,905.167 1260.33,905.833 1260,906.5C 1259.65,904.782 1259.15,903.115 1258.5,901.5C 1260.58,899.843 1260.75,897.843 1259,895.5C 1257.89,897.8 1257.39,900.3 1257.5,903C 1257.83,905.167 1258.17,907.333 1258.5,909.5C 1260.33,907.973 1261.33,908.473 1261.5,911C 1261.17,911.833 1260.83,912.667 1260.5,913.5C 1259.83,912.5 1259.17,911.5 1258.5,910.5C 1257.78,914.847 1257.11,919.18 1256.5,923.5C 1257.72,927.258 1258.39,930.925 1258.5,934.5C 1259.31,934.192 1259.97,933.692 1260.5,933C 1259.62,928.554 1259.29,923.887 1259.5,919C 1259.67,917.833 1259.83,916.667 1260,915.5C 1260.42,916.672 1261.09,917.672 1262,918.5C 1262.33,916.833 1262.67,915.167 1263,913.5C 1263.5,917.486 1263.67,921.486 1263.5,925.5C 1263.67,961.529 1260.84,997.529 1255,1033.5C 1246.48,1076.52 1229.31,1115.52 1203.5,1150.5C 1202.09,1150.97 1201.43,1151.97 1201.5,1153.5C 1191.58,1166.75 1180.58,1179.09 1168.5,1190.5C 1168.57,1190.06 1168.4,1189.73 1168,1189.5C 1165.55,1191.44 1163.71,1193.77 1162.5,1196.5C 1161.17,1197.5 1159.83,1198.5 1158.5,1199.5C 1158.57,1199.06 1158.4,1198.73 1158,1198.5C 1156.96,1199.24 1156.46,1200.24 1156.5,1201.5C 1149.8,1206.86 1142.8,1211.86 1135.5,1216.5C 1132.45,1216.35 1130.45,1217.69 1129.5,1220.5C 1127.34,1222.08 1125,1223.42 1122.5,1224.5C 1121.09,1224.97 1120.43,1225.97 1120.5,1227.5C 1116.99,1229.42 1113.32,1231.09 1109.5,1232.5C 1108.83,1231.73 1107.99,1231.07 1107,1230.5C 1106.28,1231.45 1105.45,1231.62 1104.5,1231C 1105.7,1230.35 1105.7,1229.85 1104.5,1229.5C 1103.72,1230.73 1103.22,1232.06 1103,1233.5C 1102.67,1233.17 1102.33,1232.83 1102,1232.5C 1101.69,1233.31 1101.19,1233.97 1100.5,1234.5C 1100.09,1233.74 1099.92,1232.74 1100,1231.5C 1098.42,1232.01 1097.09,1231.35 1096,1229.5C 1094.13,1230.37 1093.63,1231.54 1094.5,1233C 1093.12,1234.24 1091.79,1234.41 1090.5,1233.5C 1092.3,1231.8 1092.97,1229.96 1092.5,1228C 1091.09,1227.68 1089.76,1228.02 1088.5,1229C 1089.55,1230.39 1089.72,1231.89 1089,1233.5C 1088.77,1229 1086.94,1227.83 1083.5,1230C 1084.5,1230.33 1085.5,1230.67 1086.5,1231C 1086.17,1231.33 1085.83,1231.67 1085.5,1232C 1087.4,1233.45 1089.07,1235.11 1090.5,1237C 1089.03,1238.1 1088.2,1239.6 1088,1241.5C 1086.43,1238.11 1084.43,1237.77 1082,1240.5C 1080.33,1238.3 1078.33,1237.97 1076,1239.5C 1074.15,1236.82 1072.99,1237.15 1072.5,1240.5C 1072.61,1241.44 1072.94,1242.28 1073.5,1243C 1072.26,1243.46 1071.42,1242.96 1071,1241.5C 1070.34,1243.11 1070.84,1244.27 1072.5,1245C 1071.25,1246.4 1070.25,1247.9 1069.5,1249.5C 1040.29,1259.01 1010.46,1264.01 980,1264.5C 967.026,1265.14 954.193,1265.81 941.5,1266.5C 941.167,1266.5 940.833,1266.5 940.5,1266.5C 940.167,1265.17 939.833,1265.17 939.5,1266.5C 733.5,1266.5 527.5,1266.5 321.5,1266.5C 278.022,1267.51 235.355,1261.68 193.5,1249C 185.273,1246.32 177.273,1243.15 169.5,1239.5C 168.38,1237.43 167.38,1235.26 166.5,1233C 167.328,1232.09 168.328,1231.42 169.5,1231C 167.462,1229.76 166.295,1227.93 166,1225.5C 163.454,1229.12 161.121,1228.78 159,1224.5C 156.754,1224.78 154.254,1225.11 151.5,1225.5C 151.036,1222.3 149.536,1222.3 147,1225.5C 145.956,1224.38 145.29,1223.04 145,1221.5C 143.479,1221.52 141.979,1221.85 140.5,1222.5C 130.349,1216.92 120.682,1210.59 111.5,1203.5C 111.414,1202.5 111.748,1201.67 112.5,1201C 111.234,1200.69 110.067,1200.19 109,1199.5C 108.601,1199.73 108.435,1200.06 108.5,1200.5C 107.128,1199.49 105.795,1198.49 104.5,1197.5C 104.5,1195.5 103.5,1194.5 101.5,1194.5C 99.5,1192.83 97.5,1191.17 95.5,1189.5C 94.5806,1186.91 92.914,1184.91 90.5,1183.5C 83.4747,1177.11 77.1414,1170.11 71.5,1162.5C 71.5123,1159.86 70.179,1158.52 67.5,1158.5C 66.8333,1157.5 66.1667,1156.5 65.5,1155.5C 65.573,1153.97 64.9063,1152.97 63.5,1152.5C 59.9479,1149.61 57.6146,1145.95 56.5,1141.5C 56.0349,1137.6 55.3682,1133.77 54.5,1130C 56.8361,1128.73 56.8361,1127.23 54.5,1125.5C 51.2374,1126.37 50.9041,1127.7 53.5,1129.5C 53.1667,1129.83 52.8333,1130.17 52.5,1130.5C 51.2638,1129.75 49.9305,1129.42 48.5,1129.5C 48.7148,1127.82 48.0481,1126.82 46.5,1126.5C 40.8595,1118.89 36.5262,1110.55 33.5,1101.5C 32.0155,1096.52 30.5155,1091.52 29,1086.5C 27.8006,1084.42 26.3006,1082.76 24.5,1081.5C 21.1937,1074.91 18.8604,1067.91 17.5,1060.5C 18.2891,1060.22 18.9558,1059.72 19.5,1059C 18.1667,1058 18.1667,1057 19.5,1056C 18.3333,1055.5 17.5,1054.67 17,1053.5C 16.321,1050.45 15.4877,1047.45 14.5,1044.5C 14.0431,1043.7 13.3764,1043.37 12.5,1043.5C 7.60034,1025.2 4.93368,1006.7 4.5,988C 2.86973,977.28 2.20306,966.447 2.5,955.5C 2.17311,945.985 2.50644,936.652 3.5,927.5C 5.11709,926.411 5.95042,924.744 6,922.5C 7.01938,924.269 7.18605,925.936 6.5,927.5C 6.84569,928.696 7.34569,928.696 8,927.5C 8.66667,922.833 8.66667,918.167 8,913.5C 6.89025,915.397 6.72358,917.23 7.5,919C 7,919.5 6.5,920 6,920.5C 4.86131,915.142 4.69465,909.809 5.5,904.5C 5.26297,901.937 4.76297,901.937 4,904.5C 3.89327,901.869 3.7266,899.369 3.5,897C 4.16667,896.333 4.83333,895.667 5.5,895C 4.83333,890.333 4.16667,885.667 3.5,881C 7.9115,879.888 9.57817,877.054 8.5,872.5C 8.5474,869.705 8.0474,867.039 7,864.5C 6.78107,865.938 6.28107,867.271 5.5,868.5C 4.68156,866.892 4.0149,865.225 3.5,863.5C 4.16667,863.167 4.83333,862.833 5.5,862.5C 4.97473,861.808 4.30806,861.308 3.5,861C 4.55364,859.612 4.72031,858.112 4,856.5C 3.72158,857.416 3.22158,858.082 2.5,858.5C 2.5,840.5 2.5,822.5 2.5,804.5C 3.37644,804.631 4.04311,804.298 4.5,803.5C 3.87834,800.233 3.87834,797.233 4.5,794.5C 5.60113,792.606 6.93446,791.939 8.5,792.5C 7.48132,783.935 7.48132,775.768 8.5,768C 7.75112,766.266 7.25112,764.433 7,762.5C 6.81844,765.226 6.31844,767.893 5.5,770.5C 5.16667,770.333 4.83333,770.167 4.5,770C 4.71521,763.441 4.71521,756.274 4.5,748.5C 5.06387,746.181 5.56387,743.847 6,741.5C 6.33333,747.167 6.66667,752.833 7,758.5C 7.5,758 8,757.5 8.5,757C 7.31699,747.587 7.31699,738.92 8.5,731C 7.16667,731.667 5.83333,732.333 4.5,733C 5.52199,730.8 6.85533,728.8 8.5,727C 7.62567,719.185 7.62567,711.518 8.5,704C 7.16667,703.667 5.83333,703.333 4.5,703C 6.07448,702.664 7.40781,701.831 8.5,700.5C 7.2839,699.904 5.95057,699.737 4.5,700C 5.33663,698.989 5.66997,697.822 5.5,696.5C 4.5,696.5 3.5,696.5 2.5,696.5C 2.5,686.833 2.5,677.167 2.5,667.5C 2.5,648.833 2.5,630.167 2.5,611.5C 3.5,611.5 4.5,611.5 5.5,611.5C 6.79749,608.238 6.46416,605.071 4.5,602C 5.02527,601.308 5.69194,600.808 6.5,600.5C 6.53305,601.989 7.03305,603.322 8,604.5C 8.16667,603.667 8.33333,602.833 8.5,602C 6.42866,599.756 5.09532,597.09 4.5,594C 5,593.5 5.5,593 6,592.5C 6.28961,594.044 6.95627,595.377 8,596.5C 7.95362,594.687 8.12029,593.021 8.5,591.5C 7.67504,590.614 6.67504,590.281 5.5,590.5C 5.71756,581.98 5.38422,573.813 4.5,566C 6.31217,563.209 6.31217,560.209 4.5,557C 5.64067,554.776 4.97401,553.276 2.5,552.5C 2.5,543.167 2.5,533.833 2.5,524.5C 3.05559,533.424 3.88892,542.424 5,551.5C 4.49501,546.218 4.49501,540.884 5,535.5C 9.66469,534.261 9.49802,533.428 4.5,533C 4.98173,531.992 5.14839,530.825 5,529.5C 6.06743,528.809 7.23409,528.309 8.5,528C 4.71883,527.633 4.05217,526.3 6.5,524C 5.83333,523.667 5.16667,523.333 4.5,523C 4.62558,521.026 4.79225,518.859 5,516.5C 6.01602,515.366 6.68268,515.699 7,517.5C 7.5,516.5 8,515.5 8.5,514.5C 7.47058,514.704 6.47058,514.204 5.5,513C 7.09946,511.934 8.09946,510.434 8.5,508.5C 7.28891,507.28 7.28891,506.113 8.5,505C 8,504.5 7.5,504 7,503.5C 6.68858,508.059 5.85525,508.392 4.5,504.5C 5.75566,501.988 5.75566,499.488 4.5,497C 5.10074,495.395 6.10074,494.062 7.5,493C 6.58377,492.626 5.75044,492.126 5,491.5C 4.34896,482.964 4.51562,474.63 5.5,466.5C 5,465.5 4.5,464.5 4,463.5C 3.78997,465.058 3.28997,466.391 2.5,467.5C 2.5,424.833 2.5,382.167 2.5,339.5C 1.77022,292.732 7.10355,246.732 18.5,201.5C 21.1499,200.543 21.8166,198.876 20.5,196.5C 25.8169,179.868 32.4835,163.868 40.5,148.5C 41.5,148.5 42.5,148.5 43.5,148.5C 45.1867,143.823 46.8534,139.156 48.5,134.5C 50.1023,130.905 52.1023,127.571 54.5,124.5C 56.0481,124.179 56.7148,123.179 56.5,121.5C 56.5,120.833 56.8333,120.5 57.5,120.5C 58.9063,120.027 59.573,119.027 59.5,117.5C 60.1237,115.246 61.457,113.579 63.5,112.5C 64.9063,112.027 65.573,111.027 65.5,109.5C 65.5,108.833 65.8333,108.5 66.5,108.5C 68.5869,107.415 69.9202,105.749 70.5,103.5C 76.1414,95.8919 82.4747,88.8919 89.5,82.5C 92.2427,80.7607 94.2427,78.4274 95.5,75.5C 113.911,58.4194 134.244,44.0861 156.5,32.5C 156.56,33.0431 156.893,33.3764 157.5,33.5C 159.858,32.8461 161.525,31.5128 162.5,29.5C 193.054,15.693 225.054,6.85965 258.5,3C 272.624,1.43964 286.624,0.272976 300.5,-0.5 Z"/></g>
<g><path style="opacity:1" fill="#8dbdda" d="M 1032.5,7.5 C 1037.09,7.88157 1041.43,8.88157 1045.5,10.5C 1045.08,11.1239 1044.42,11.4573 1043.5,11.5C 1040.31,10.1345 1036.98,9.30117 1033.5,9C 1032.94,8.61742 1032.61,8.11742 1032.5,7.5 Z"/></g>
<g><path style="opacity:1" fill="#76c0ea" d="M 1051.5,11.5 C 1066.19,14.398 1080.19,19.0646 1093.5,25.5C 1093.22,26.2891 1092.72,26.9558 1092,27.5C 1090.84,25.203 1089.84,25.5363 1089,28.5C 1088.67,27.5 1088.33,26.5 1088,25.5C 1087.67,25.8333 1087.33,26.1667 1087,26.5C 1086.17,25.5 1085.33,24.5 1084.5,23.5C 1083.48,24.8532 1082.14,25.5198 1080.5,25.5C 1080.5,24.5 1080.5,23.5 1080.5,22.5C 1079.45,22.3505 1078.45,22.5172 1077.5,23C 1078.96,23.4226 1079.46,24.2559 1079,25.5C 1075.67,27.0012 1072.83,26.3345 1070.5,23.5C 1068.67,25.7808 1066.67,25.7808 1064.5,23.5C 1061.91,25.433 1059.57,25.433 1057.5,23.5C 1053.88,23.3981 1050.38,23.7314 1047,24.5C 1046.78,22.5804 1047.45,20.9137 1049,19.5C 1050.49,21.5598 1052.33,21.8932 1054.5,20.5C 1053.5,17.9722 1052.67,17.9722 1052,20.5C 1048.58,18.4638 1047.75,16.1305 1049.5,13.5C 1050.19,14.0253 1050.69,14.6919 1051,15.5C 1051.49,14.2068 1051.66,12.8734 1051.5,11.5 Z"/></g>
<g><path style="opacity:1" fill="#8fb9d4" d="M 162.5,29.5 C 161.525,31.5128 159.858,32.8461 157.5,33.5C 156.893,33.3764 156.56,33.0431 156.5,32.5C 158.181,30.9925 160.181,29.9925 162.5,29.5 Z"/></g>
<g><path style="opacity:1" fill="#90b5c8" d="M 1158.5,65.5 C 1160.5,66.8333 1162.17,68.5 1163.5,70.5C 1160.83,69.8333 1159.17,68.1667 1158.5,65.5 Z"/></g>
<g><path style="opacity:1" fill="#a7b7bc" d="M 1169.5,75.5 C 1172.24,77.2393 1174.24,79.5726 1175.5,82.5C 1172.76,80.7607 1170.76,78.4274 1169.5,75.5 Z"/></g>
<g><path style="opacity:1" fill="#a1b1ba" d="M 95.5,75.5 C 94.2427,78.4274 92.2427,80.7607 89.5,82.5C 90.7573,79.5726 92.7573,77.2393 95.5,75.5 Z"/></g>
<g><path style="opacity:1" fill="#a7bac4" d="M 1189.5,97.5 C 1190.83,98.1667 1191.83,99.1667 1192.5,100.5C 1190.5,100.5 1189.5,99.5 1189.5,97.5 Z"/></g>
<g><path style="opacity:1" fill="#a3becd" d="M 1192.5,100.5 C 1193.91,100.973 1194.57,101.973 1194.5,103.5C 1193.09,103.027 1192.43,102.027 1192.5,100.5 Z"/></g>
<g><path style="opacity:1" fill="#9abac8" d="M 70.5,103.5 C 69.9202,105.749 68.5869,107.415 66.5,108.5C 67.0798,106.251 68.4131,104.585 70.5,103.5 Z"/></g>
<g><path style="opacity:1" fill="#9cb5c1" d="M 1196.5,105.5 C 1197.91,105.973 1198.57,106.973 1198.5,108.5C 1197.09,108.027 1196.43,107.027 1196.5,105.5 Z"/></g>
<g><path style="opacity:1" fill="#c0c1c0" d="M 1201.5,106.5 C 1203.34,106.639 1203.67,107.306 1202.5,108.5C 1201.7,108.043 1201.37,107.376 1201.5,106.5 Z"/></g>
<g><path style="opacity:1" fill="#9cb4c4" d="M 65.5,109.5 C 65.573,111.027 64.9063,112.027 63.5,112.5C 63.427,110.973 64.0937,109.973 65.5,109.5 Z"/></g>
<g><path style="opacity:1" fill="#a1b8c3" d="M 1199.5,109.5 C 1201.26,110.262 1202.26,111.596 1202.5,113.5C 1200.74,112.738 1199.74,111.404 1199.5,109.5 Z"/></g>
<g><path style="opacity:1" fill="#a7b8c0" d="M 1203.5,114.5 C 1204.91,114.973 1205.57,115.973 1205.5,117.5C 1204.09,117.027 1203.43,116.027 1203.5,114.5 Z"/></g>
<g><path style="opacity:1" fill="#aab7bf" d="M 59.5,117.5 C 59.573,119.027 58.9063,120.027 57.5,120.5C 57.427,118.973 58.0937,117.973 59.5,117.5 Z"/></g>
<g><path style="opacity:1" fill="#b0bcbf" d="M 1206.5,118.5 C 1207.91,118.973 1208.57,119.973 1208.5,121.5C 1207.09,121.027 1206.43,120.027 1206.5,118.5 Z"/></g>
<g><path style="opacity:1" fill="#97b4c8" d="M 56.5,121.5 C 56.7148,123.179 56.0481,124.179 54.5,124.5C 54.9321,123.29 55.5987,122.29 56.5,121.5 Z"/></g>
<g><path style="opacity:1" fill="#80bcdf" d="M 48.5,134.5 C 46.8534,139.156 45.1867,143.823 43.5,148.5C 42.5,148.5 41.5,148.5 40.5,148.5C 42.6643,143.5 45.331,138.833 48.5,134.5 Z"/></g>
<g><path style="opacity:1" fill="#a2b7c2" d="M 1227.5,154.5 C 1229.1,155.287 1229.77,156.62 1229.5,158.5C 1228.33,157.486 1227.66,156.153 1227.5,154.5 Z"/></g>
<g><path style="opacity:1" fill="#c0c1c0" d="M 30.5,157.5 C 31.525,157.897 31.6917,158.563 31,159.5C 30.5357,158.906 30.369,158.239 30.5,157.5 Z"/></g>
<g><path style="opacity:1" fill="#8ebad5" d="M 20.5,196.5 C 21.8166,198.876 21.1499,200.543 18.5,201.5C 18.7959,199.597 19.4625,197.93 20.5,196.5 Z"/></g>
<g><path style="opacity:1" fill="#c7e4f4" d="M 731.5,217.5 C 714.506,216.295 697.506,216.295 680.5,217.5C 688.942,215.954 697.609,215.287 706.5,215.5C 712.833,215.667 719.167,215.833 725.5,216C 727.708,216.191 729.708,216.691 731.5,217.5 Z"/></g>
<g><path style="opacity:1" fill="#ecf9f9" d="M 731.5,217.5 C 736.973,218.617 742.64,219.283 748.5,219.5C 753.695,219.717 758.695,220.717 763.5,222.5C 766.888,224.118 770.554,225.118 774.5,225.5C 776.599,226.612 778.933,227.279 781.5,227.5C 785.233,229.411 789.233,230.744 793.5,231.5C 862.743,259.243 911.576,307.577 940,376.5C 953.558,410.51 960.224,445.844 960,482.5C 986.153,487.933 1010.32,497.933 1032.5,512.5C 1039.59,518.156 1047.25,523.822 1055.5,529.5C 1099.96,572.118 1122.96,624.452 1124.5,686.5C 1123.95,699.931 1122.61,713.264 1120.5,726.5C 1107.31,788.309 1073.64,834.975 1019.5,866.5C 1006.84,872.048 994.172,877.381 981.5,882.5C 968.554,886.717 955.22,889.551 941.5,891C 906.5,891.333 871.5,891.667 836.5,892C 839.864,899.591 842.53,907.425 844.5,915.5C 846.498,921.162 848.498,926.828 850.5,932.5C 854.364,942.593 857.53,952.927 860,963.5C 860.484,968.918 859.984,974.251 858.5,979.5C 855.064,988.598 849.397,995.931 841.5,1001.5C 831.404,1005.75 821.071,1009.42 810.5,1012.5C 805.112,1013.63 799.778,1014.96 794.5,1016.5C 794.5,1019.5 794.5,1022.5 794.5,1025.5C 795.718,1040.19 791.051,1052.53 780.5,1062.5C 775.262,1066.78 769.262,1069.45 762.5,1070.5C 762.314,1074.72 761.314,1078.72 759.5,1082.5C 752.871,1097.66 741.204,1105.66 724.5,1106.5C 717.709,1105.64 711.043,1104.14 704.5,1102C 680.871,1094.01 657.204,1086.18 633.5,1078.5C 604.814,1087.34 576.147,1096.51 547.5,1106C 534.48,1107.05 523.147,1103.22 513.5,1094.5C 508.533,1087.23 505.2,1079.23 503.5,1070.5C 501.035,1070.23 498.701,1069.57 496.5,1068.5C 483.626,1063.79 475.459,1054.79 472,1041.5C 470.905,1036.22 470.405,1030.89 470.5,1025.5C 470.664,1022.81 470.497,1020.15 470,1017.5C 467.779,1016.59 465.612,1015.59 463.5,1014.5C 449.214,1010.85 435.547,1005.85 422.5,999.5C 414.365,993.225 408.699,985.225 405.5,975.5C 405.171,968.759 405.671,962.092 407,955.5C 413.709,934.325 420.876,913.325 428.5,892.5C 393.336,891.833 358.336,891.167 323.5,890.5C 319.455,888.823 315.122,888.156 310.5,888.5C 304.094,887.816 297.761,886.649 291.5,885C 286.793,882.361 281.793,880.528 276.5,879.5C 267.405,875.905 258.405,871.905 249.5,867.5C 226.975,856.157 207.475,840.823 191,821.5C 161.744,786.932 145.244,746.932 141.5,701.5C 141.54,698.119 141.207,694.786 140.5,691.5C 140.533,631.665 160.866,580.332 201.5,537.5C 207.469,532.865 213.136,527.865 218.5,522.5C 229.069,514.696 240.069,507.529 251.5,501C 264.552,494.15 278.219,488.983 292.5,485.5C 289.132,432.404 309.465,391.57 353.5,363C 360.59,359.784 367.59,356.617 374.5,353.5C 378.162,353.277 381.495,352.277 384.5,350.5C 388.951,349.903 393.284,348.903 397.5,347.5C 403.181,347.365 408.848,347.032 414.5,346.5C 436.575,346.685 457.242,352.185 476.5,363C 477.944,363.781 479.277,363.614 480.5,362.5C 511.572,296.392 561.239,251.726 629.5,228.5C 632.067,228.279 634.401,227.612 636.5,226.5C 650.776,221.711 665.442,218.711 680.5,217.5C 697.506,216.295 714.506,216.295 731.5,217.5 Z"/></g>
<g><path style="opacity:1" fill="#bee0f3" d="M 731.5,217.5 C 737.417,217.216 743.084,217.883 748.5,219.5C 742.64,219.283 736.973,218.617 731.5,217.5 Z"/></g>
<g><path style="opacity:1" fill="#96d1ee" d="M 774.5,225.5 C 770.554,225.118 766.888,224.118 763.5,222.5C 766.171,221.731 768.671,221.398 771,221.5C 772.032,223.027 773.199,224.36 774.5,225.5 Z"/></g>
<g><path style="opacity:1" fill="#8ecdef" d="M 793.5,231.5 C 789.233,230.744 785.233,229.411 781.5,227.5C 782.675,227.719 783.675,227.386 784.5,226.5C 783.674,225.549 783.508,224.549 784,223.5C 785,224.833 786,224.833 787,223.5C 787.438,227.761 789.604,230.428 793.5,231.5 Z"/></g>
<g><path style="opacity:1" fill="#a5d7f1" d="M 636.5,226.5 C 634.401,227.612 632.067,228.279 629.5,228.5C 631.438,226.837 633.772,226.171 636.5,226.5 Z"/></g>
<g><path style="opacity:1" fill="#c0c1c0" d="M 1264.5,239.5 C 1265.53,239.897 1265.69,240.563 1265,241.5C 1264.54,240.906 1264.37,240.239 1264.5,239.5 Z"/></g>
<g><path style="opacity:1" fill="#c0c1ba" d="M 1264.5,272.5 C 1265.53,272.897 1265.69,273.563 1265,274.5C 1264.54,273.906 1264.37,273.239 1264.5,272.5 Z"/></g>
<g><path style="opacity:1" fill="#bac1ba" d="M 1264.5,276.5 C 1265.53,276.897 1265.69,277.563 1265,278.5C 1264.54,277.906 1264.37,277.239 1264.5,276.5 Z"/></g>
<g><path style="opacity:1" fill="#c0c1c0" d="M 1266.5,283.5 C 1266.5,284.167 1266.5,284.833 1266.5,285.5C 1265.17,284.833 1265.17,284.167 1266.5,283.5 Z"/></g>
<g><path style="opacity:1" fill="#c0c1c0" d="M 1264.5,295.5 C 1265.53,295.897 1265.69,296.563 1265,297.5C 1264.54,296.906 1264.37,296.239 1264.5,295.5 Z"/></g>
<g><path style="opacity:1" fill="#c0c1c0" d="M -0.5,296.5 C 0.833333,297.167 0.833333,297.833 -0.5,298.5C -0.5,297.833 -0.5,297.167 -0.5,296.5 Z"/></g>
<g><path style="opacity:1" fill="#addbf3" d="M 414.5,346.5 C 408.848,347.032 403.181,347.365 397.5,347.5C 403.11,345.638 408.777,345.304 414.5,346.5 Z"/></g>
<g><path style="opacity:1" fill="#afd5ea" d="M 384.5,350.5 C 381.495,352.277 378.162,353.277 374.5,353.5C 377.505,351.723 380.838,350.723 384.5,350.5 Z"/></g>
<g><path style="opacity:1" fill="#71c8f2" d="M 630.5,808.5 C 629.537,807.637 629.537,806.97 630.5,806.5C 632.403,806.694 634.237,806.694 636,806.5C 637.548,805.086 638.215,803.42 638,801.5C 637.311,802.357 636.478,803.023 635.5,803.5C 633.958,802.253 632.458,802.253 631,803.5C 630.667,802.833 630.333,802.167 630,801.5C 629.261,802.574 628.261,803.241 627,803.5C 623.776,801.51 620.942,799.01 618.5,796C 619.211,794.745 620.044,793.579 621,792.5C 621.216,794.384 621.883,796.051 623,797.5C 625.857,795.095 627.024,792.262 626.5,789C 624.521,788.316 622.854,788.816 621.5,790.5C 620.833,789.5 620.167,788.5 619.5,787.5C 617.639,788.528 616.305,790.028 615.5,792C 614.255,792.791 612.922,793.291 611.5,793.5C 566.789,747.124 522.122,700.791 477.5,654.5C 477.278,652.393 476.278,650.726 474.5,649.5C 475.5,648.667 476.5,647.833 477.5,647C 476.045,644.984 474.045,644.151 471.5,644.5C 473.05,641.828 472.55,639.495 470,637.5C 469.667,638.5 469.333,639.5 469,640.5C 467.989,639.663 466.822,639.33 465.5,639.5C 464.195,631.31 467.528,626.144 475.5,624C 503.831,623.5 532.165,623.333 560.5,623.5C 560.171,566.429 560.504,509.429 561.5,452.5C 563.39,452.89 564.89,451.89 566,449.5C 566.333,449.833 566.667,450.167 567,450.5C 568.094,448.922 568.928,447.255 569.5,445.5C 610.459,444.345 651.459,444.178 692.5,445C 697.012,445.508 700.512,447.675 703,451.5C 704.492,508.75 704.992,566.083 704.5,623.5C 732.835,623.333 761.169,623.5 789.5,624C 798.686,627.551 801.519,634.051 798,643.5C 797,645.167 796,646.833 795,648.5C 744.219,700.283 693.719,752.45 643.5,805C 639.523,808.152 635.19,809.319 630.5,808.5 Z"/></g>
<g><path style="opacity:1" fill="#8cc8e4" d="M 569.5,445.5 C 568.928,447.255 568.094,448.922 567,450.5C 566.667,450.167 566.333,449.833 566,449.5C 564.89,451.89 563.39,452.89 561.5,452.5C 563.336,449.244 566.003,446.911 569.5,445.5 Z"/></g>
<g><path style="opacity:1" fill="#72bfeb" d="M 2.5,524.5 C 2.5,505.5 2.5,486.5 2.5,467.5C 3.28997,466.391 3.78997,465.058 4,463.5C 4.5,464.5 5,465.5 5.5,466.5C 4.51562,474.63 4.34896,482.964 5,491.5C 5.75044,492.126 6.58377,492.626 7.5,493C 6.10074,494.062 5.10074,495.395 4.5,497C 5.75566,499.488 5.75566,501.988 4.5,504.5C 5.85525,508.392 6.68858,508.059 7,503.5C 7.5,504 8,504.5 8.5,505C 7.28891,506.113 7.28891,507.28 8.5,508.5C 8.09946,510.434 7.09946,511.934 5.5,513C 6.47058,514.204 7.47058,514.704 8.5,514.5C 8,515.5 7.5,516.5 7,517.5C 6.68268,515.699 6.01602,515.366 5,516.5C 4.79225,518.859 4.62558,521.026 4.5,523C 5.16667,523.333 5.83333,523.667 6.5,524C 4.05217,526.3 4.71883,527.633 8.5,528C 7.23409,528.309 6.06743,528.809 5,529.5C 5.14839,530.825 4.98173,531.992 4.5,533C 9.49802,533.428 9.66469,534.261 5,535.5C 4.49501,540.884 4.49501,546.218 5,551.5C 3.88892,542.424 3.05559,533.424 2.5,524.5 Z"/></g>
<g><path style="opacity:1" fill="#7ec9ef" d="M 1055.5,529.5 C 1047.25,523.822 1039.59,518.156 1032.5,512.5C 1035.05,512.559 1037.05,511.559 1038.5,509.5C 1039.77,511.318 1041.27,512.985 1043,514.5C 1043.33,513.833 1043.67,513.167 1044,512.5C 1044.22,513.938 1044.72,515.271 1045.5,516.5C 1045.91,515.738 1046.08,514.738 1046,513.5C 1047.02,514.634 1047.68,514.301 1048,512.5C 1048.87,513.108 1049.37,513.941 1049.5,515C 1048.77,516.766 1048.43,518.599 1048.5,520.5C 1050.6,520.997 1052.43,521.33 1054,521.5C 1053.89,522.631 1053.39,523.631 1052.5,524.5C 1053.53,526.184 1054.53,527.851 1055.5,529.5 Z"/></g>
<g><path style="opacity:1" fill="#7fc1e7" d="M 1263.5,413.5 C 1264.61,466.609 1264.61,519.943 1263.5,573.5C 1262.73,572.828 1262.07,571.995 1261.5,571C 1262.55,569.612 1262.72,568.112 1262,566.5C 1260.85,565.542 1259.85,565.875 1259,567.5C 1258.73,565.899 1258.23,564.399 1257.5,563C 1257.85,551.144 1257.85,539.478 1257.5,528C 1258.23,526.601 1258.73,525.101 1259,523.5C 1259.33,527.833 1259.67,532.167 1260,536.5C 1260.5,536 1261,535.5 1261.5,535C 1260.17,532.667 1260.17,530.333 1261.5,528C 1259.36,518.991 1258.03,509.825 1257.5,500.5C 1258.43,489.734 1258.43,479.067 1257.5,468.5C 1257.67,464.006 1258.67,459.839 1260.5,456C 1258.86,451.558 1257.86,446.892 1257.5,442C 1258.22,439.878 1259.39,439.378 1261,440.5C 1262.47,438.384 1261.8,436.717 1259,435.5C 1258.33,431.167 1258.33,426.833 1259,422.5C 1259.67,425.028 1260.5,425.028 1261.5,422.5C 1260.96,420.729 1260.13,420.396 1259,421.5C 1258.33,417.167 1258.33,412.833 1259,408.5C 1259.5,409 1260,409.5 1260.5,410C 1259.09,412.292 1259.26,414.459 1261,416.5C 1261.24,414.881 1262.07,413.881 1263.5,413.5 Z"/></g>
<g><path style="opacity:1" fill="#91b6c9" d="M 2.5,339.5 C 2.5,382.167 2.5,424.833 2.5,467.5C 2.5,486.5 2.5,505.5 2.5,524.5C 2.5,533.833 2.5,543.167 2.5,552.5C 2.5,572.167 2.5,591.833 2.5,611.5C 2.5,630.167 2.5,648.833 2.5,667.5C 2.16667,667.5 1.83333,667.5 1.5,667.5C 0.955344,597.074 0.622011,527.074 0.5,457.5C 1.16099,418.039 1.82765,378.706 2.5,339.5 Z"/></g>
<g><path style="opacity:1" fill="#88c9e9" d="M 218.5,522.5 C 213.136,527.865 207.469,532.865 201.5,537.5C 203.795,534.703 206.295,532.036 209,529.5C 209.49,528.207 209.657,526.873 209.5,525.5C 212.346,525.97 214.679,525.137 216.5,523C 215.181,521.372 213.848,521.539 212.5,523.5C 212.37,521.577 212.036,519.744 211.5,518C 212,517.833 212.5,517.667 213,517.5C 215.034,519.038 216.867,520.705 218.5,522.5 Z"/></g>
<g><path style="opacity:1" fill="#71c1ee" d="M 2.5,552.5 C 4.97401,553.276 5.64067,554.776 4.5,557C 6.31217,560.209 6.31217,563.209 4.5,566C 5.38422,573.813 5.71756,581.98 5.5,590.5C 6.67504,590.281 7.67504,590.614 8.5,591.5C 8.12029,593.021 7.95362,594.687 8,596.5C 6.95627,595.377 6.28961,594.044 6,592.5C 5.5,593 5,593.5 4.5,594C 5.09532,597.09 6.42866,599.756 8.5,602C 8.33333,602.833 8.16667,603.667 8,604.5C 7.03305,603.322 6.53305,601.989 6.5,600.5C 5.69194,600.808 5.02527,601.308 4.5,602C 6.46416,605.071 6.79749,608.238 5.5,611.5C 4.5,611.5 3.5,611.5 2.5,611.5C 2.5,591.833 2.5,572.167 2.5,552.5 Z"/></g>
<g><path style="opacity:1" fill="#86c8e9" d="M 477.5,654.5 C 472.041,650.704 468.041,645.704 465.5,639.5C 466.822,639.33 467.989,639.663 469,640.5C 469.333,639.5 469.667,638.5 470,637.5C 472.55,639.495 473.05,641.828 471.5,644.5C 474.045,644.151 476.045,644.984 477.5,647C 476.5,647.833 475.5,648.667 474.5,649.5C 476.278,650.726 477.278,652.393 477.5,654.5 Z"/></g>
<g><path style="opacity:1" fill="#7fc8eb" d="M 1120.5,726.5 C 1122.61,713.264 1123.95,699.931 1124.5,686.5C 1125.27,685.737 1125.77,684.737 1126,683.5C 1126.31,684.766 1126.81,685.933 1127.5,687C 1126.83,687.333 1126.17,687.667 1125.5,688C 1126.66,689.009 1127.32,690.342 1127.5,692C 1126.93,694.006 1126.93,695.84 1127.5,697.5C 1126.69,698.216 1126.02,699.05 1125.5,700C 1126.94,702.877 1127.94,705.877 1128.5,709C 1127.28,711.096 1126.45,710.929 1126,708.5C 1124.35,709.941 1124.19,711.608 1125.5,713.5C 1125.08,714.672 1124.41,715.672 1123.5,716.5C 1125.6,721.011 1124.6,724.344 1120.5,726.5 Z"/></g>
<g><path style="opacity:1" fill="#7ec7eb" d="M 140.5,691.5 C 141.207,694.786 141.54,698.119 141.5,701.5C 140.5,701.5 139.5,701.5 138.5,701.5C 139.838,704.52 139.838,707.187 138.5,709.5C 137.809,704.617 137.143,699.784 136.5,695C 137.005,689.415 137.005,683.415 136.5,677C 136.63,675.941 137.13,675.108 138,674.5C 138.251,676.433 138.751,678.266 139.5,680C 138.852,683.358 138.519,686.691 138.5,690C 139.044,690.717 139.711,691.217 140.5,691.5 Z"/></g>
<g><path style="opacity:1" fill="#72c0ec" d="M 2.5,696.5 C 3.5,696.5 4.5,696.5 5.5,696.5C 5.66997,697.822 5.33663,698.989 4.5,700C 5.95057,699.737 7.2839,699.904 8.5,700.5C 7.40781,701.831 6.07448,702.664 4.5,703C 5.83333,703.333 7.16667,703.667 8.5,704C 7.62567,711.518 7.62567,719.185 8.5,727C 6.85533,728.8 5.52199,730.8 4.5,733C 5.83333,732.333 7.16667,731.667 8.5,731C 7.31699,738.92 7.31699,747.587 8.5,757C 8,757.5 7.5,758 7,758.5C 6.66667,752.833 6.33333,747.167 6,741.5C 5.56387,743.847 5.06387,746.181 4.5,748.5C 4.71521,756.274 4.71521,763.441 4.5,770C 4.83333,770.167 5.16667,770.333 5.5,770.5C 6.31844,767.893 6.81844,765.226 7,762.5C 7.25112,764.433 7.75112,766.266 8.5,768C 7.48132,775.768 7.48132,783.935 8.5,792.5C 6.93446,791.939 5.60113,792.606 4.5,794.5C 3.87834,797.233 3.87834,800.233 4.5,803.5C 4.04311,804.298 3.37644,804.631 2.5,804.5C 2.5,768.5 2.5,732.5 2.5,696.5 Z"/></g>
<g><path style="opacity:1" fill="#80c8eb" d="M 592.5,751.5 C 593.833,751.5 595.167,751.5 596.5,751.5C 596.683,753.936 596.016,756.103 594.5,758C 595.5,758.333 596.5,758.667 597.5,759C 596.89,760.947 596.057,762.781 595,764.5C 594.333,763.167 593.667,763.167 593,764.5C 589.248,760.922 589.081,756.589 592.5,751.5 Z"/></g>
<g><path style="opacity:1" fill="#75c0ea" d="M 1263.5,649.5 C 1263.61,741.471 1263.61,833.471 1263.5,925.5C 1263.67,921.486 1263.5,917.486 1263,913.5C 1262.67,915.167 1262.33,916.833 1262,918.5C 1261.09,917.672 1260.42,916.672 1260,915.5C 1259.83,916.667 1259.67,917.833 1259.5,919C 1259.29,923.887 1259.62,928.554 1260.5,933C 1259.97,933.692 1259.31,934.192 1258.5,934.5C 1258.39,930.925 1257.72,927.258 1256.5,923.5C 1257.11,919.18 1257.78,914.847 1258.5,910.5C 1259.17,911.5 1259.83,912.5 1260.5,913.5C 1260.83,912.667 1261.17,911.833 1261.5,911C 1261.33,908.473 1260.33,907.973 1258.5,909.5C 1258.17,907.333 1257.83,905.167 1257.5,903C 1257.39,900.3 1257.89,897.8 1259,895.5C 1260.75,897.843 1260.58,899.843 1258.5,901.5C 1259.15,903.115 1259.65,904.782 1260,906.5C 1260.33,905.833 1260.67,905.167 1261,904.5C 1261.31,898.517 1261.47,892.684 1261.5,887C 1260.81,882.778 1259.81,882.612 1258.5,886.5C 1258.17,885.833 1257.83,885.167 1257.5,884.5C 1258.12,882.319 1258.12,879.986 1257.5,877.5C 1257.83,876.167 1258.17,874.833 1258.5,873.5C 1259.77,875.695 1259.77,877.861 1258.5,880C 1259.33,880.833 1260.17,881.667 1261,882.5C 1261.19,876.252 1261.69,870.085 1262.5,864C 1261.17,857.333 1261.17,850.667 1262.5,844C 1261.74,842.559 1261.07,841.059 1260.5,839.5C 1262.36,834.666 1262.36,830 1260.5,825.5C 1259.83,828.5 1259.17,831.5 1258.5,834.5C 1258.17,834 1257.83,833.5 1257.5,833C 1257.67,822.167 1257.67,811 1257.5,799.5C 1258.23,796.891 1258.73,794.224 1259,791.5C 1259.33,791.833 1259.67,792.167 1260,792.5C 1260.78,791.271 1261.28,789.938 1261.5,788.5C 1260.79,784.204 1259.96,783.871 1259,787.5C 1258.33,785.833 1258.33,784.167 1259,782.5C 1260.49,783.741 1261.32,783.241 1261.5,781C 1261.46,777.594 1261.12,774.094 1260.5,770.5C 1259.67,774.122 1259.17,777.789 1259,781.5C 1259.04,777.668 1258.2,774.168 1256.5,771C 1257.52,770.481 1258.18,769.647 1258.5,768.5C 1258.4,762.653 1258.07,756.82 1257.5,751C 1258,750.5 1258.5,750 1259,749.5C 1259.33,754.167 1259.67,758.833 1260,763.5C 1260.96,761.801 1261.46,759.967 1261.5,758C 1261.38,753.544 1261.38,749.377 1261.5,745.5C 1260.68,744.614 1259.68,744.281 1258.5,744.5C 1258.37,731.833 1258.37,719.166 1258.5,706.5C 1258.41,704.036 1257.74,701.87 1256.5,700C 1257.77,697.617 1258.43,694.95 1258.5,692C 1258.62,681.108 1258.28,670.108 1257.5,659C 1257.63,657.941 1258.13,657.108 1259,656.5C 1260.16,657.993 1260.99,657.826 1261.5,656C 1260.71,653.901 1260.38,651.734 1260.5,649.5C 1261.5,649.5 1262.5,649.5 1263.5,649.5 Z"/></g>
<g><path style="opacity:1" fill="#80c8ee" d="M 630.5,808.5 C 622.185,806.157 615.852,801.157 611.5,793.5C 612.922,793.291 614.255,792.791 615.5,792C 616.305,790.028 617.639,788.528 619.5,787.5C 620.167,788.5 620.833,789.5 621.5,790.5C 622.854,788.816 624.521,788.316 626.5,789C 627.024,792.262 625.857,795.095 623,797.5C 621.883,796.051 621.216,794.384 621,792.5C 620.044,793.579 619.211,794.745 618.5,796C 620.942,799.01 623.776,801.51 627,803.5C 628.261,803.241 629.261,802.574 630,801.5C 630.333,802.167 630.667,802.833 631,803.5C 632.458,802.253 633.958,802.253 635.5,803.5C 636.478,803.023 637.311,802.357 638,801.5C 638.215,803.42 637.548,805.086 636,806.5C 634.237,806.694 632.403,806.694 630.5,806.5C 629.537,806.97 629.537,807.637 630.5,808.5 Z"/></g>
<g><path style="opacity:1" fill="#86b5cf" d="M 1.5,667.5 C 1.83333,667.5 2.16667,667.5 2.5,667.5C 2.5,677.167 2.5,686.833 2.5,696.5C 2.5,732.5 2.5,768.5 2.5,804.5C 2.5,822.5 2.5,840.5 2.5,858.5C 2.82893,872.01 2.4956,885.344 1.5,898.5C 1.30803,821.223 1.30803,744.223 1.5,667.5 Z"/></g>
<g><path style="opacity:1" fill="#8dcded" d="M 249.5,867.5 C 258.405,871.905 267.405,875.905 276.5,879.5C 273.107,877.523 270.441,878.19 268.5,881.5C 267.749,880.624 267.249,879.624 267,878.5C 266.667,879.167 266.333,879.833 266,880.5C 260.316,876.307 254.816,871.974 249.5,867.5 Z"/></g>
<g><path style="opacity:1" fill="#84c9ec" d="M 1019.5,866.5 C 1018.7,868.741 1017.03,869.741 1014.5,869.5C 1014.12,871.942 1014.79,872.609 1016.5,871.5C 1017.83,872.5 1017.83,873.5 1016.5,874.5C 1015.91,874.291 1015.41,873.957 1015,873.5C 1014.5,874.667 1013.67,875.5 1012.5,876C 1013.71,877.018 1013.37,877.518 1011.5,877.5C 1010.83,877.167 1010.17,876.833 1009.5,876.5C 1011.78,875.418 1012.95,873.752 1013,871.5C 1011.35,872.717 1009.52,873.55 1007.5,874C 1007.04,874.414 1006.71,874.914 1006.5,875.5C 1007.17,875.833 1007.83,876.167 1008.5,876.5C 1007.12,878.114 1005.62,879.78 1004,881.5C 1003.32,879.311 1002.16,878.978 1000.5,880.5C 999.522,880.023 998.689,879.357 998,878.5C 997.667,879.5 997.333,880.5 997,881.5C 996.612,880.572 995.945,879.905 995,879.5C 993.128,880.068 991.295,880.735 989.5,881.5C 988.914,881.291 988.414,880.957 988,880.5C 986.658,883.669 984.492,884.335 981.5,882.5C 994.172,877.381 1006.84,872.048 1019.5,866.5 Z"/></g>
<g><path style="opacity:1" fill="#74bfea" d="M 3.5,927.5 C 2.97588,925.694 2.30921,924.028 1.5,922.5C 1.1808,914.878 1.1808,906.878 1.5,898.5C 2.4956,885.344 2.82893,872.01 2.5,858.5C 3.22158,858.082 3.72158,857.416 4,856.5C 4.72031,858.112 4.55364,859.612 3.5,861C 4.30806,861.308 4.97473,861.808 5.5,862.5C 4.83333,862.833 4.16667,863.167 3.5,863.5C 4.0149,865.225 4.68156,866.892 5.5,868.5C 6.28107,867.271 6.78107,865.938 7,864.5C 8.0474,867.039 8.5474,869.705 8.5,872.5C 9.57817,877.054 7.9115,879.888 3.5,881C 4.16667,885.667 4.83333,890.333 5.5,895C 4.83333,895.667 4.16667,896.333 3.5,897C 3.7266,899.369 3.89327,901.869 4,904.5C 4.76297,901.937 5.26297,901.937 5.5,904.5C 4.69465,909.809 4.86131,915.142 6,920.5C 6.5,920 7,919.5 7.5,919C 6.72358,917.23 6.89025,915.397 8,913.5C 8.66667,918.167 8.66667,922.833 8,927.5C 7.34569,928.696 6.84569,928.696 6.5,927.5C 7.18605,925.936 7.01938,924.269 6,922.5C 5.95042,924.744 5.11709,926.411 3.5,927.5 Z"/></g>
<g><path style="opacity:1" fill="#d2e9f3" d="M 310.5,888.5 C 315.122,888.156 319.455,888.823 323.5,890.5C 318.9,890.72 314.567,890.054 310.5,888.5 Z"/></g>
<g><path style="opacity:1" fill="#8dc8e3" d="M 457.5,891.5 C 456.051,893.164 454.051,893.998 451.5,894C 450.044,896.266 449.21,898.766 449,901.5C 448.31,902.738 447.81,902.738 447.5,901.5C 448.167,898.167 448.833,894.833 449.5,891.5C 452.167,891.5 454.833,891.5 457.5,891.5 Z"/></g>
<g><path style="opacity:1" fill="#72c8f2" d="M 457.5,891.5 C 461.833,891.5 466.167,891.5 470.5,891.5C 470.5,918.167 470.5,944.833 470.5,971.5C 468.7,972.605 467.533,971.939 467,969.5C 466.667,973.5 466.333,977.5 466,981.5C 465.308,980.975 464.808,980.308 464.5,979.5C 465.053,977.273 465.053,974.939 464.5,972.5C 463.448,972.351 462.448,972.517 461.5,973C 462.167,975 462.833,977 463.5,979C 461.627,980.085 459.96,981.418 458.5,983C 460.158,983.725 460.658,984.892 460,986.5C 457.812,985.818 455.645,986.152 453.5,987.5C 445.505,985.937 437.838,983.437 430.5,980C 426.734,975.534 425.067,970.367 425.5,964.5C 426.825,965.953 427.658,965.619 428,963.5C 430.177,956.777 432.343,950.11 434.5,943.5C 434.376,942.893 434.043,942.56 433.5,942.5C 437.792,928.622 442.459,914.955 447.5,901.5C 447.81,902.738 448.31,902.738 449,901.5C 449.21,898.766 450.044,896.266 451.5,894C 454.051,893.998 456.051,893.164 457.5,891.5 Z"/></g>
<g><path style="opacity:1" fill="#72c7f2" d="M 518.5,1023.5 C 516.352,1023.61 516.019,1022.94 517.5,1021.5C 516.5,1018.83 515.5,1018.83 514.5,1021.5C 515.843,1023.78 515.176,1024.62 512.5,1024C 511.809,1022.93 511.309,1021.77 511,1020.5C 510.598,1021.87 510.098,1023.21 509.5,1024.5C 510.25,1026.93 510.583,1029.26 510.5,1031.5C 508.009,1032.54 508.009,1033.37 510.5,1034C 507.972,1035.32 507.972,1036.48 510.5,1037.5C 509.167,1038.5 507.833,1039.5 506.5,1040.5C 507.247,1040.74 508.08,1041.07 509,1041.5C 509.333,1042.83 509.667,1044.17 510,1045.5C 510.333,1045.17 510.667,1044.83 511,1044.5C 511.238,1040.78 511.738,1037.11 512.5,1033.5C 511.03,1030.68 511.196,1028.01 513,1025.5C 513.645,1026.65 514.478,1027.65 515.5,1028.5C 512.975,1031.42 512.975,1034.25 515.5,1037C 513.963,1038.11 513.297,1039.61 513.5,1041.5C 515.124,1041.64 516.29,1040.97 517,1039.5C 517.953,1042.43 518.453,1045.43 518.5,1048.5C 512.79,1048.53 507.123,1048.03 501.5,1047C 502.934,1044.05 502.768,1041.22 501,1038.5C 499.658,1040.75 497.824,1042.41 495.5,1043.5C 494.108,1041.73 492.941,1039.73 492,1037.5C 491.5,1006.17 491.333,974.835 491.5,943.5C 492.725,942.848 493.392,941.681 493.5,940C 492.893,936.627 492.559,933.294 492.5,930C 493.264,927.931 493.764,925.764 494,923.5C 495.081,925.622 495.748,927.622 496,929.5C 496.497,926.854 496.664,924.187 496.5,921.5C 495.5,921.5 494.5,921.5 493.5,921.5C 494.01,918.612 493.344,916.279 491.5,914.5C 491.5,906.833 491.5,899.167 491.5,891.5C 500.5,891.5 509.5,891.5 518.5,891.5C 518.5,935.5 518.5,979.5 518.5,1023.5 Z"/></g>
<g><path style="opacity:1" fill="#70c7f2" d="M 573.5,891.5 C 640.167,891.5 706.833,891.5 773.5,891.5C 773.667,939.834 773.5,988.168 773,1036.5C 771.562,1042.42 768.062,1046.42 762.5,1048.5C 757.167,1048.5 751.833,1048.5 746.5,1048.5C 747.538,1046.89 746.871,1045.89 744.5,1045.5C 743.914,1045.71 743.414,1046.04 743,1046.5C 741.663,1045 739.996,1044 738,1043.5C 737.667,1044.17 737.333,1044.83 737,1045.5C 730.557,1044.31 724.39,1044.31 718.5,1045.5C 717.833,1045.5 717.167,1045.5 716.5,1045.5C 714.83,1045.25 713.33,1044.58 712,1043.5C 707.062,1044.27 702.062,1044.94 697,1045.5C 691.561,1045.43 686.561,1045.1 682,1044.5C 681.683,1046.3 681.016,1046.63 680,1045.5C 679,1046.17 678,1046.83 677,1047.5C 675.113,1043.8 673.613,1044.13 672.5,1048.5C 644.833,1048.5 617.167,1048.5 589.5,1048.5C 589.762,1047.02 589.429,1045.69 588.5,1044.5C 586.53,1045.44 585.03,1044.78 584,1042.5C 582.701,1043.98 581.034,1044.65 579,1044.5C 575.853,1044.56 573.186,1043.56 571,1041.5C 569.902,1042.97 568.402,1043.8 566.5,1044C 563.854,1044.5 561.187,1044.66 558.5,1044.5C 557.833,1044.5 557.167,1044.5 556.5,1044.5C 554.557,1043.92 554.223,1042.92 555.5,1041.5C 554.675,1040.61 553.675,1040.28 552.5,1040.5C 552.644,1031.89 552.311,1023.56 551.5,1015.5C 550.221,1022.35 550.221,1029.18 551.5,1036C 550.813,1039.84 548.813,1042.67 545.5,1044.5C 541.734,1041.9 540.067,1038.23 540.5,1033.5C 540.259,1014.42 540.592,995.587 541.5,977C 540.842,964.735 540.176,952.569 539.5,940.5C 539.5,940.167 539.5,939.833 539.5,939.5C 540.329,932.011 540.829,924.344 541,916.5C 541.75,915.874 542.584,915.374 543.5,915C 542.786,913.657 543.12,912.324 544.5,911C 544.353,909.026 544.019,907.026 543.5,905C 544.025,904.308 544.692,903.808 545.5,903.5C 547.003,904.052 548.669,904.052 550.5,903.5C 550.334,907.846 550.501,912.179 551,916.5C 552.651,914.246 552.818,911.912 551.5,909.5C 552.254,906.223 552.754,902.89 553,899.5C 553.333,900.167 553.667,900.833 554,901.5C 555.171,900.107 556.671,899.273 558.5,899C 558.056,897.467 557.723,895.967 557.5,894.5C 558,894.167 558.5,893.833 559,893.5C 561.645,893.438 564.145,893.772 566.5,894.5C 568.302,892.966 570.135,892.632 572,893.5C 573.03,893.164 573.53,892.497 573.5,891.5 Z"/></g>
<g><path style="opacity:1" fill="#73c8f1" d="M 803.5,891.5 C 805.158,892.181 806.825,893.015 808.5,894C 806.363,896.179 806.029,898.679 807.5,901.5C 809.957,901.22 812.624,900.553 815.5,899.5C 816.417,900.127 817.417,900.461 818.5,900.5C 825.23,921.191 832.064,941.858 839,962.5C 841.246,971.501 838.413,978.334 830.5,983C 818.197,985.989 806.364,990.156 795,995.5C 794.505,993.527 794.338,991.527 794.5,989.5C 795.329,981.677 795.829,973.677 796,965.5C 796.684,963.641 797.684,961.974 799,960.5C 799.333,960.833 799.667,961.167 800,961.5C 800.236,959.236 800.736,957.069 801.5,955C 800.691,949.583 800.191,944.083 800,938.5C 799.626,939.416 799.126,940.25 798.5,941C 798.374,943.234 798.707,945.568 799.5,948C 798.874,948.75 798.374,949.584 798,950.5C 797.667,950.167 797.333,949.833 797,949.5C 796.788,946.242 796.288,943.076 795.5,940C 795.833,938.333 796.167,936.667 796.5,935C 795.934,934.005 795.267,933.172 794.5,932.5C 794.5,918.833 794.5,905.167 794.5,891.5C 797.5,891.5 800.5,891.5 803.5,891.5 Z"/></g>
<g><path style="opacity:1" fill="#87c7e6" d="M 803.5,891.5 C 807.555,891.176 811.555,891.509 815.5,892.5C 816.199,895.31 817.199,897.977 818.5,900.5C 817.417,900.461 816.417,900.127 815.5,899.5C 812.624,900.553 809.957,901.22 807.5,901.5C 806.029,898.679 806.363,896.179 808.5,894C 806.825,893.015 805.158,892.181 803.5,891.5 Z"/></g>
<g><path style="opacity:1" fill="#83c8ea" d="M 573.5,891.5 C 573.53,892.497 573.03,893.164 572,893.5C 570.135,892.632 568.302,892.966 566.5,894.5C 564.145,893.772 561.645,893.438 559,893.5C 558.5,893.833 558,894.167 557.5,894.5C 557.723,895.967 558.056,897.467 558.5,899C 556.671,899.273 555.171,900.107 554,901.5C 553.667,900.833 553.333,900.167 553,899.5C 552.754,902.89 552.254,906.223 551.5,909.5C 552.818,911.912 552.651,914.246 551,916.5C 550.501,912.179 550.334,907.846 550.5,903.5C 548.669,904.052 547.003,904.052 545.5,903.5C 544.692,903.808 544.025,904.308 543.5,905C 544.019,907.026 544.353,909.026 544.5,911C 543.12,912.324 542.786,913.657 543.5,915C 542.584,915.374 541.75,915.874 541,916.5C 540.829,924.344 540.329,932.011 539.5,939.5C 539.5,923.5 539.5,907.5 539.5,891.5C 550.833,891.5 562.167,891.5 573.5,891.5 Z"/></g>
<g><path style="opacity:1" fill="#86c7e6" d="M 491.5,914.5 C 493.344,916.279 494.01,918.612 493.5,921.5C 494.5,921.5 495.5,921.5 496.5,921.5C 496.664,924.187 496.497,926.854 496,929.5C 495.748,927.622 495.081,925.622 494,923.5C 493.764,925.764 493.264,927.931 492.5,930C 492.559,933.294 492.893,936.627 493.5,940C 493.392,941.681 492.725,942.848 491.5,943.5C 491.5,933.833 491.5,924.167 491.5,914.5 Z"/></g>
<g><path style="opacity:1" fill="#92c9e4" d="M 850.5,932.5 C 848.498,926.828 846.498,921.162 844.5,915.5C 845.708,914.766 847.041,914.433 848.5,914.5C 848.228,920.079 849.228,925.412 851.5,930.5C 851.457,931.416 851.124,932.083 850.5,932.5 Z"/></g>
<g><path style="opacity:1" fill="#93b8cc" d="M 1.5,922.5 C 2.30921,924.028 2.97588,925.694 3.5,927.5C 2.50644,936.652 2.17311,945.985 2.5,955.5C 1.5054,944.679 1.17207,933.679 1.5,922.5 Z"/></g>
<g><path style="opacity:1" fill="#8ac7e5" d="M 502.5,913.5 C 504.176,923.025 505.176,932.858 505.5,943C 504.91,944.509 504.244,946.009 503.5,947.5C 502.404,943.577 502.404,939.411 503.5,935C 503.072,932.371 502.072,930.038 500.5,928C 501.966,926.448 502.966,924.614 503.5,922.5C 502.593,919.579 502.26,916.579 502.5,913.5 Z"/></g>
<g><path style="opacity:1" fill="#82c7e8" d="M 550.5,939.5 C 551.83,945.463 552.496,951.796 552.5,958.5C 551.886,970.148 551.886,981.148 552.5,991.5C 551.77,994.109 551.27,996.776 551,999.5C 550.796,992.783 550.296,986.117 549.5,979.5C 550.482,966.216 550.815,952.883 550.5,939.5 Z"/></g>
<g><path style="opacity:1" fill="#83c7e8" d="M 806.5,935.5 C 807.693,935.97 808.36,936.97 808.5,938.5C 808.687,951.121 808.353,963.455 807.5,975.5C 806.501,962.183 806.167,948.85 806.5,935.5 Z"/></g>
<g><path style="opacity:1" fill="#84c8eb" d="M 794.5,932.5 C 795.267,933.172 795.934,934.005 796.5,935C 796.167,936.667 795.833,938.333 795.5,940C 796.288,943.076 796.788,946.242 797,949.5C 797.333,949.833 797.667,950.167 798,950.5C 798.374,949.584 798.874,948.75 799.5,948C 798.707,945.568 798.374,943.234 798.5,941C 799.126,940.25 799.626,939.416 800,938.5C 800.191,944.083 800.691,949.583 801.5,955C 800.736,957.069 800.236,959.236 800,961.5C 799.667,961.167 799.333,960.833 799,960.5C 797.684,961.974 796.684,963.641 796,965.5C 795.829,973.677 795.329,981.677 794.5,989.5C 794.5,970.5 794.5,951.5 794.5,932.5 Z"/></g>
<g><path style="opacity:1" fill="#8cc8e6" d="M 433.5,942.5 C 434.043,942.56 434.376,942.893 434.5,943.5C 432.343,950.11 430.177,956.777 428,963.5C 427.658,965.619 426.825,965.953 425.5,964.5C 427.993,957.015 430.659,949.682 433.5,942.5 Z"/></g>
<g><path style="opacity:1" fill="#abcfe1" d="M 539.5,940.5 C 540.176,952.569 540.842,964.735 541.5,977C 540.592,995.587 540.259,1014.42 540.5,1033.5C 539.502,1002.67 539.169,971.671 539.5,940.5 Z"/></g>
<g><path style="opacity:1" fill="#80c8ec" d="M 470.5,971.5 C 470.666,979.174 470.5,986.841 470,994.5C 464.528,991.851 459.028,989.517 453.5,987.5C 455.645,986.152 457.812,985.818 460,986.5C 460.658,984.892 460.158,983.725 458.5,983C 459.96,981.418 461.627,980.085 463.5,979C 462.833,977 462.167,975 461.5,973C 462.448,972.517 463.448,972.351 464.5,972.5C 465.053,974.939 465.053,977.273 464.5,979.5C 464.808,980.308 465.308,980.975 466,981.5C 466.333,977.5 466.667,973.5 467,969.5C 467.533,971.939 468.7,972.605 470.5,971.5 Z"/></g>
<g><path style="opacity:1" fill="#90cae6" d="M 858.5,979.5 C 859.139,980.097 859.472,980.93 859.5,982C 857.174,986.329 854.841,990.662 852.5,995C 852.611,996.722 853.111,996.888 854,995.5C 854.279,998.961 853.279,998.961 851,995.5C 850.009,996.939 848.676,997.939 847,998.5C 846.261,1000.22 845.427,1001.89 844.5,1003.5C 843.735,1002.39 842.735,1001.72 841.5,1001.5C 849.397,995.931 855.064,988.598 858.5,979.5 Z"/></g>
<g><path style="opacity:1" fill="#81c8eb" d="M 405.5,975.5 C 408.699,985.225 414.365,993.225 422.5,999.5C 420.738,999.357 419.071,999.691 417.5,1000.5C 416.201,999.91 415.368,998.91 415,997.5C 413.221,998.479 411.555,998.146 410,996.5C 409.667,997.167 409.333,997.833 409,998.5C 408.48,996.711 408.813,995.044 410,993.5C 410.777,995.701 411.944,995.701 413.5,993.5C 411.807,992.772 410.307,991.772 409,990.5C 407.602,991.051 406.268,991.384 405,991.5C 404.25,990.874 403.416,990.374 402.5,990C 404.904,989.804 406.571,988.638 407.5,986.5C 406.369,985.396 405.535,985.729 405,987.5C 404.935,985.117 404.102,984.45 402.5,985.5C 401.5,985.167 400.833,984.5 400.5,983.5C 401.833,983.167 403.167,982.833 404.5,982.5C 404.167,981.833 403.833,981.167 403.5,980.5C 404.167,980.167 404.833,979.833 405.5,979.5C 404.295,978.005 404.295,976.672 405.5,975.5 Z"/></g>
<g><path style="opacity:1" fill="#84c7e7" d="M 503.5,998.5 C 504.302,999.952 504.802,1001.62 505,1003.5C 506.131,1002.4 506.965,1002.73 507.5,1004.5C 505.318,1005.82 504.651,1007.49 505.5,1009.5C 504.738,1013.11 504.238,1016.78 504,1020.5C 502.208,1013.2 502.041,1005.87 503.5,998.5 Z"/></g>
<g><path style="opacity:1" fill="#83c7e9" d="M 556.5,1044.5 C 555.63,1046.6 554.297,1046.93 552.5,1045.5C 551.476,1046.85 550.143,1047.52 548.5,1047.5C 546.81,1047.14 545.81,1046.14 545.5,1044.5C 548.813,1042.67 550.813,1039.84 551.5,1036C 550.221,1029.18 550.221,1022.35 551.5,1015.5C 552.311,1023.56 552.644,1031.89 552.5,1040.5C 553.675,1040.28 554.675,1040.61 555.5,1041.5C 554.223,1042.92 554.557,1043.92 556.5,1044.5 Z"/></g>
<g><path style="opacity:1" fill="#7dc7ec" d="M 810.5,1012.5 C 808.408,1014.21 806.741,1016.38 805.5,1019C 806.448,1019.48 807.448,1019.65 808.5,1019.5C 809.504,1022.56 810.004,1025.56 810,1028.5C 811.425,1029.21 812.925,1029.38 814.5,1029C 814.928,1031.63 815.928,1033.96 817.5,1036C 816.107,1037.17 815.273,1038.67 815,1040.5C 810.879,1034.58 808.379,1035.25 807.5,1042.5C 806.511,1038.89 806.177,1035.23 806.5,1031.5C 805.5,1031.5 804.5,1031.5 803.5,1031.5C 803.307,1035.45 802.807,1035.45 802,1031.5C 801.02,1033.06 800.187,1034.73 799.5,1036.5C 799.089,1035.74 798.923,1034.74 799,1033.5C 797.667,1034.17 796.667,1035.17 796,1036.5C 795.333,1034.17 795.333,1031.83 796,1029.5C 796.333,1030.83 796.667,1032.17 797,1033.5C 798.166,1030.07 797.332,1027.41 794.5,1025.5C 794.5,1022.5 794.5,1019.5 794.5,1016.5C 799.778,1014.96 805.112,1013.63 810.5,1012.5 Z"/></g>
<g><path style="opacity:1" fill="#81c9ed" d="M 518.5,1023.5 C 518.541,1032.04 519.875,1040.37 522.5,1048.5C 516.193,1049.66 509.859,1049.83 503.5,1049C 500.279,1047.9 497.612,1046.06 495.5,1043.5C 497.824,1042.41 499.658,1040.75 501,1038.5C 502.768,1041.22 502.934,1044.05 501.5,1047C 507.123,1048.03 512.79,1048.53 518.5,1048.5C 518.453,1045.43 517.953,1042.43 517,1039.5C 516.29,1040.97 515.124,1041.64 513.5,1041.5C 513.297,1039.61 513.963,1038.11 515.5,1037C 512.975,1034.25 512.975,1031.42 515.5,1028.5C 514.478,1027.65 513.645,1026.65 513,1025.5C 511.196,1028.01 511.03,1030.68 512.5,1033.5C 511.738,1037.11 511.238,1040.78 511,1044.5C 510.667,1044.83 510.333,1045.17 510,1045.5C 509.667,1044.17 509.333,1042.83 509,1041.5C 508.08,1041.07 507.247,1040.74 506.5,1040.5C 507.833,1039.5 509.167,1038.5 510.5,1037.5C 507.972,1036.48 507.972,1035.32 510.5,1034C 508.009,1033.37 508.009,1032.54 510.5,1031.5C 510.583,1029.26 510.25,1026.93 509.5,1024.5C 510.098,1023.21 510.598,1021.87 511,1020.5C 511.309,1021.77 511.809,1022.93 512.5,1024C 515.176,1024.62 515.843,1023.78 514.5,1021.5C 515.5,1018.83 516.5,1018.83 517.5,1021.5C 516.019,1022.94 516.352,1023.61 518.5,1023.5 Z"/></g>
<g><path style="opacity:1" fill="#7fc7ea" d="M 463.5,1014.5 C 465.612,1015.59 467.779,1016.59 470,1017.5C 470.497,1020.15 470.664,1022.81 470.5,1025.5C 469.844,1024.72 469.011,1024.06 468,1023.5C 466.51,1024.32 465.01,1025.15 463.5,1026C 467.634,1028.73 467.301,1030.9 462.5,1032.5C 461.385,1033.6 461.385,1034.77 462.5,1036C 461.99,1037.83 461.156,1037.99 460,1036.5C 459.808,1038.58 459.308,1040.58 458.5,1042.5C 456.898,1040.29 455.564,1037.96 454.5,1035.5C 454.722,1033.94 455.389,1032.61 456.5,1031.5C 455.064,1030.07 453.398,1028.9 451.5,1028C 453.5,1027 455.5,1026 457.5,1025C 457.816,1022.27 457.483,1019.77 456.5,1017.5C 456.833,1017.17 457.167,1016.83 457.5,1016.5C 458.5,1017.17 459.5,1017.83 460.5,1018.5C 461.398,1017.08 462.398,1015.74 463.5,1014.5 Z"/></g>
<g><path style="opacity:1" fill="#83c7e8" d="M 716.5,1045.5 C 715.531,1046.31 714.698,1047.31 714,1048.5C 711.065,1045.51 707.565,1045.18 703.5,1047.5C 702.833,1047.17 702.167,1046.83 701.5,1046.5C 692.027,1048.44 682.36,1049.11 672.5,1048.5C 673.613,1044.13 675.113,1043.8 677,1047.5C 678,1046.83 679,1046.17 680,1045.5C 681.016,1046.63 681.683,1046.3 682,1044.5C 686.561,1045.1 691.561,1045.43 697,1045.5C 702.062,1044.94 707.062,1044.27 712,1043.5C 713.33,1044.58 714.83,1045.25 716.5,1045.5 Z"/></g>
<g><path style="opacity:1" fill="#84c7e8" d="M 589.5,1048.5 C 581.5,1048.5 573.5,1048.5 565.5,1048.5C 565.646,1046.06 564.813,1045.39 563,1046.5C 561.378,1045.9 559.878,1045.23 558.5,1044.5C 561.187,1044.66 563.854,1044.5 566.5,1044C 568.402,1043.8 569.902,1042.97 571,1041.5C 573.186,1043.56 575.853,1044.56 579,1044.5C 581.034,1044.65 582.701,1043.98 584,1042.5C 585.03,1044.78 586.53,1045.44 588.5,1044.5C 589.429,1045.69 589.762,1047.02 589.5,1048.5 Z"/></g>
<g><path style="opacity:1" fill="#86c7e8" d="M 746.5,1048.5 C 740.158,1048.67 733.825,1048.5 727.5,1048C 728.696,1047.35 728.696,1046.85 727.5,1046.5C 725.573,1047.86 723.573,1048.86 721.5,1049.5C 720.833,1049.5 720.167,1049.5 719.5,1049.5C 719.567,1048.04 719.234,1046.71 718.5,1045.5C 724.39,1044.31 730.557,1044.31 737,1045.5C 737.333,1044.83 737.667,1044.17 738,1043.5C 739.996,1044 741.663,1045 743,1046.5C 743.414,1046.04 743.914,1045.71 744.5,1045.5C 746.871,1045.89 747.538,1046.89 746.5,1048.5 Z"/></g>
<g><path style="opacity:1" fill="#9ad1ee" d="M 556.5,1044.5 C 557.167,1044.5 557.833,1044.5 558.5,1044.5C 559.878,1045.23 561.378,1045.9 563,1046.5C 564.813,1045.39 565.646,1046.06 565.5,1048.5C 573.5,1048.5 581.5,1048.5 589.5,1048.5C 617.167,1048.5 644.833,1048.5 672.5,1048.5C 682.36,1049.11 692.027,1048.44 701.5,1046.5C 702.167,1046.83 702.833,1047.17 703.5,1047.5C 707.565,1045.18 711.065,1045.51 714,1048.5C 714.698,1047.31 715.531,1046.31 716.5,1045.5C 717.167,1045.5 717.833,1045.5 718.5,1045.5C 719.234,1046.71 719.567,1048.04 719.5,1049.5C 663.499,1049.67 607.499,1049.5 551.5,1049C 550.263,1048.77 549.263,1048.27 548.5,1047.5C 550.143,1047.52 551.476,1046.85 552.5,1045.5C 554.297,1046.93 555.63,1046.6 556.5,1044.5 Z"/></g>
<g><path style="opacity:1" fill="#9fd2ed" d="M 746.5,1048.5 C 751.833,1048.5 757.167,1048.5 762.5,1048.5C 749.01,1049.5 735.344,1049.83 721.5,1049.5C 723.573,1048.86 725.573,1047.86 727.5,1046.5C 728.696,1046.85 728.696,1047.35 727.5,1048C 733.825,1048.5 740.158,1048.67 746.5,1048.5 Z"/></g>
<g><path style="opacity:1" fill="#81b9da" d="M 12.5,1043.5 C 13.3764,1043.37 14.0431,1043.7 14.5,1044.5C 15.4877,1047.45 16.321,1050.45 17,1053.5C 17.5,1054.67 18.3333,1055.5 19.5,1056C 18.1667,1057 18.1667,1058 19.5,1059C 18.9558,1059.72 18.2891,1060.22 17.5,1060.5C 15.6661,1054.99 13.9994,1049.32 12.5,1043.5 Z"/></g>
<g><path style="opacity:1" fill="#90cdf1" d="M 524.5,1071.5 C 544.996,1070.34 565.663,1070.17 586.5,1071C 585.473,1071.51 584.473,1072.01 583.5,1072.5C 563.531,1071.81 543.865,1071.48 524.5,1071.5 Z"/></g>
<g><path style="opacity:1" fill="#8fcdf0" d="M 741.5,1071.5 C 739.983,1071.51 738.816,1072.18 738,1073.5C 737.667,1072.83 737.333,1072.17 737,1071.5C 734.594,1074.81 732.594,1074.81 731,1071.5C 714.808,1071.2 698.641,1071.54 682.5,1072.5C 681.527,1072.01 680.527,1071.51 679.5,1071C 700.337,1070.17 721.004,1070.34 741.5,1071.5 Z"/></g>
<g><path style="opacity:1" fill="#75c8f1" d="M 524.5,1071.5 C 543.865,1071.48 563.531,1071.81 583.5,1072.5C 576.926,1074.05 570.593,1076.05 564.5,1078.5C 561.848,1078.41 559.515,1079.08 557.5,1080.5C 553.858,1081.61 550.191,1082.61 546.5,1083.5C 541.473,1083.5 536.473,1083.16 531.5,1082.5C 527.6,1079.91 525.266,1076.25 524.5,1071.5 Z"/></g>
<g><path style="opacity:1" fill="#74c8f2" d="M 682.5,1072.5 C 698.641,1071.54 714.808,1071.2 731,1071.5C 732.594,1074.81 734.594,1074.81 737,1071.5C 737.333,1072.17 737.667,1072.83 738,1073.5C 738.816,1072.18 739.983,1071.51 741.5,1071.5C 741.818,1074.48 740.818,1076.81 738.5,1078.5C 735.05,1077.76 733.384,1079.09 733.5,1082.5C 732.178,1082.67 731.011,1082.34 730,1081.5C 727.159,1083.5 723.993,1084 720.5,1083C 720.002,1081.84 719.169,1081.01 718,1080.5C 714.936,1080.92 711.769,1080.92 708.5,1080.5C 700.073,1077.22 691.406,1074.56 682.5,1072.5 Z"/></g>
<g><path style="opacity:1" fill="#8ac8e9" d="M 780.5,1062.5 C 779.569,1065.24 777.736,1067.24 775,1068.5C 772.039,1069.53 769.539,1071.2 767.5,1073.5C 766.227,1073.25 765.06,1073.25 764,1073.5C 763.493,1077.18 761.993,1080.18 759.5,1082.5C 761.314,1078.72 762.314,1074.72 762.5,1070.5C 769.262,1069.45 775.262,1066.78 780.5,1062.5 Z"/></g>
<g><path style="opacity:1" fill="#c2e0f0" d="M 564.5,1078.5 C 562.485,1079.92 560.152,1080.59 557.5,1080.5C 559.515,1079.08 561.848,1078.41 564.5,1078.5 Z"/></g>
<g><path style="opacity:1" fill="#95ceec" d="M 738.5,1078.5 C 735.603,1083.45 731.269,1085.45 725.5,1084.5C 719.395,1084.56 713.728,1083.22 708.5,1080.5C 711.769,1080.92 714.936,1080.92 718,1080.5C 719.169,1081.01 720.002,1081.84 720.5,1083C 723.993,1084 727.159,1083.5 730,1081.5C 731.011,1082.34 732.178,1082.67 733.5,1082.5C 733.384,1079.09 735.05,1077.76 738.5,1078.5 Z"/></g>
<g><path style="opacity:1" fill="#9cd0ed" d="M 531.5,1082.5 C 536.473,1083.16 541.473,1083.5 546.5,1083.5C 542.354,1084.65 538.02,1084.81 533.5,1084C 532.584,1083.72 531.918,1083.22 531.5,1082.5 Z"/></g>
<g><path style="opacity:1" fill="#82c8ea" d="M 496.5,1068.5 C 498.701,1069.57 501.035,1070.23 503.5,1070.5C 505.2,1079.23 508.533,1087.23 513.5,1094.5C 511.534,1093.56 509.534,1092.56 507.5,1091.5C 505.678,1092.43 504.345,1091.76 503.5,1089.5C 502.914,1089.71 502.414,1090.04 502,1090.5C 501.228,1089.15 500.061,1088.32 498.5,1088C 500.433,1087.75 502.266,1087.25 504,1086.5C 504.113,1082.08 503.28,1081.75 501.5,1085.5C 500.167,1083.17 500.167,1080.83 501.5,1078.5C 502.251,1079.38 502.751,1080.38 503,1081.5C 503.5,1081 504,1080.5 504.5,1080C 503.663,1078.99 503.33,1077.82 503.5,1076.5C 502.5,1076.5 501.5,1076.5 500.5,1076.5C 500.587,1073.4 500.087,1073.07 499,1075.5C 496.863,1073.68 496.03,1071.35 496.5,1068.5 Z"/></g>
<g><path style="opacity:1" fill="#7ebbdf" d="M 24.5,1081.5 C 26.3006,1082.76 27.8006,1084.42 29,1086.5C 30.5155,1091.52 32.0155,1096.52 33.5,1101.5C 29.7496,1095.28 26.7496,1088.61 24.5,1081.5 Z"/></g>
<g><path style="opacity:1" fill="#78bee6" d="M 56.5,1141.5 C 52.3897,1137.05 49.0563,1132.05 46.5,1126.5C 48.0481,1126.82 48.7148,1127.82 48.5,1129.5C 49.9305,1129.42 51.2638,1129.75 52.5,1130.5C 52.8333,1130.17 53.1667,1129.83 53.5,1129.5C 50.9041,1127.7 51.2374,1126.37 54.5,1125.5C 56.8361,1127.23 56.8361,1128.73 54.5,1130C 55.3682,1133.77 56.0349,1137.6 56.5,1141.5 Z"/></g>
<g><path style="opacity:1" fill="#91b3c6" d="M 1203.5,1150.5 C 1203.57,1152.03 1202.91,1153.03 1201.5,1153.5C 1201.43,1151.97 1202.09,1150.97 1203.5,1150.5 Z"/></g>
<g><path style="opacity:1" fill="#a4b4c0" d="M 63.5,1152.5 C 64.9063,1152.97 65.573,1153.97 65.5,1155.5C 64.0937,1155.03 63.427,1154.03 63.5,1152.5 Z"/></g>
<g><path style="opacity:1" fill="#8cb8d0" d="M 67.5,1158.5 C 70.179,1158.52 71.5123,1159.86 71.5,1162.5C 69.8333,1161.5 68.5,1160.17 67.5,1158.5 Z"/></g>
<g><path style="opacity:1" fill="#b0b6b7" d="M 90.5,1183.5 C 92.914,1184.91 94.5806,1186.91 95.5,1189.5C 93.086,1188.09 91.4194,1186.09 90.5,1183.5 Z"/></g>
<g><path style="opacity:1" fill="#a3b4be" d="M 1168.5,1190.5 C 1166.83,1192.83 1164.83,1194.83 1162.5,1196.5C 1163.71,1193.77 1165.55,1191.44 1168,1189.5C 1168.4,1189.73 1168.57,1190.06 1168.5,1190.5 Z"/></g>
<g><path style="opacity:1" fill="#9cb6c3" d="M 101.5,1194.5 C 103.5,1194.5 104.5,1195.5 104.5,1197.5C 103.167,1196.83 102.167,1195.83 101.5,1194.5 Z"/></g>
<g><path style="opacity:1" fill="#9cb3c1" d="M 1158.5,1199.5 C 1158.17,1200.5 1157.5,1201.17 1156.5,1201.5C 1156.46,1200.24 1156.96,1199.24 1158,1198.5C 1158.4,1198.73 1158.57,1199.06 1158.5,1199.5 Z"/></g>
<g><path style="opacity:1" fill="#92bbd5" d="M 111.5,1203.5 C 110.167,1202.83 109.167,1201.83 108.5,1200.5C 108.435,1200.06 108.601,1199.73 109,1199.5C 110.067,1200.19 111.234,1200.69 112.5,1201C 111.748,1201.67 111.414,1202.5 111.5,1203.5 Z"/></g>
<g><path style="opacity:1" fill="#93bdd8" d="M 1135.5,1216.5 C 1133.8,1218.19 1131.8,1219.53 1129.5,1220.5C 1130.45,1217.69 1132.45,1216.35 1135.5,1216.5 Z"/></g>
<g><path style="opacity:1" fill="#7bc1e8" d="M 169.5,1239.5 C 163.708,1237.1 158.041,1234.44 152.5,1231.5C 152.238,1229.44 151.071,1228.1 149,1227.5C 148.601,1227.73 148.435,1228.06 148.5,1228.5C 147.391,1228.44 146.391,1228.11 145.5,1227.5C 145.573,1225.97 144.906,1224.97 143.5,1224.5C 142.698,1225.95 142.198,1227.62 142,1229.5C 141.71,1227.08 141.21,1224.75 140.5,1222.5C 141.979,1221.85 143.479,1221.52 145,1221.5C 145.29,1223.04 145.956,1224.38 147,1225.5C 149.536,1222.3 151.036,1222.3 151.5,1225.5C 154.254,1225.11 156.754,1224.78 159,1224.5C 161.121,1228.78 163.454,1229.12 166,1225.5C 166.295,1227.93 167.462,1229.76 169.5,1231C 168.328,1231.42 167.328,1232.09 166.5,1233C 167.38,1235.26 168.38,1237.43 169.5,1239.5 Z"/></g>
<g><path style="opacity:1" fill="#afb6bd" d="M 1122.5,1224.5 C 1122.57,1226.03 1121.91,1227.03 1120.5,1227.5C 1120.43,1225.97 1121.09,1224.97 1122.5,1224.5 Z"/></g>
<g><path style="opacity:1" fill="#b0bac2" d="M 143.5,1224.5 C 144.906,1224.97 145.573,1225.97 145.5,1227.5C 144.094,1227.03 143.427,1226.03 143.5,1224.5 Z"/></g>
<g><path style="opacity:1" fill="#a0b5c2" d="M 152.5,1231.5 C 150.77,1230.97 149.436,1229.97 148.5,1228.5C 148.435,1228.06 148.601,1227.73 149,1227.5C 151.071,1228.1 152.238,1229.44 152.5,1231.5 Z"/></g>
<g><path style="opacity:1" fill="#78bfe7" d="M 1109.5,1232.5 C 1105.82,1235.01 1101.82,1237.01 1097.5,1238.5C 1097.44,1237.96 1097.11,1237.62 1096.5,1237.5C 1094.79,1237.88 1093.79,1238.88 1093.5,1240.5C 1088.46,1243.07 1083.13,1245.07 1077.5,1246.5C 1076.38,1245.24 1075.71,1245.58 1075.5,1247.5C 1073.58,1248.36 1071.58,1249.03 1069.5,1249.5C 1070.25,1247.9 1071.25,1246.4 1072.5,1245C 1070.84,1244.27 1070.34,1243.11 1071,1241.5C 1071.42,1242.96 1072.26,1243.46 1073.5,1243C 1072.94,1242.28 1072.61,1241.44 1072.5,1240.5C 1072.99,1237.15 1074.15,1236.82 1076,1239.5C 1078.33,1237.97 1080.33,1238.3 1082,1240.5C 1084.43,1237.77 1086.43,1238.11 1088,1241.5C 1088.2,1239.6 1089.03,1238.1 1090.5,1237C 1089.07,1235.11 1087.4,1233.45 1085.5,1232C 1085.83,1231.67 1086.17,1231.33 1086.5,1231C 1085.5,1230.67 1084.5,1230.33 1083.5,1230C 1086.94,1227.83 1088.77,1229 1089,1233.5C 1089.72,1231.89 1089.55,1230.39 1088.5,1229C 1089.76,1228.02 1091.09,1227.68 1092.5,1228C 1092.97,1229.96 1092.3,1231.8 1090.5,1233.5C 1091.79,1234.41 1093.12,1234.24 1094.5,1233C 1093.63,1231.54 1094.13,1230.37 1096,1229.5C 1097.09,1231.35 1098.42,1232.01 1100,1231.5C 1099.92,1232.74 1100.09,1233.74 1100.5,1234.5C 1101.19,1233.97 1101.69,1233.31 1102,1232.5C 1102.33,1232.83 1102.67,1233.17 1103,1233.5C 1103.22,1232.06 1103.72,1230.73 1104.5,1229.5C 1105.7,1229.85 1105.7,1230.35 1104.5,1231C 1105.45,1231.62 1106.28,1231.45 1107,1230.5C 1107.99,1231.07 1108.83,1231.73 1109.5,1232.5 Z"/></g>
<g><path style="opacity:1" fill="#94b9cd" d="M 1097.5,1238.5 C 1096.49,1239.67 1095.15,1240.34 1093.5,1240.5C 1093.79,1238.88 1094.79,1237.88 1096.5,1237.5C 1097.11,1237.62 1097.44,1237.96 1097.5,1238.5 Z"/></g>
<g><path style="opacity:1" fill="#96b3c4" d="M 1077.5,1246.5 C 1077.16,1247.34 1076.49,1247.67 1075.5,1247.5C 1075.71,1245.58 1076.38,1245.24 1077.5,1246.5 Z"/></g>
<g><path style="opacity:1" fill="#c0c1c0" d="M 218.5,1258.5 C 219.525,1258.9 219.692,1259.56 219,1260.5C 218.536,1259.91 218.369,1259.24 218.5,1258.5 Z"/></g>
</svg>
